<svg width="22" height="22" viewBox="0 0 22 22" fill="none" xmlns="http://www.w3.org/2000/svg">
<path d="M11.3388 1.97083L19.5888 5.27081C19.9097 5.39914 20.1663 5.78414 20.1663 6.1233V9.16664C20.1663 9.67081 19.7538 10.0833 19.2497 10.0833H2.74967C2.24551 10.0833 1.83301 9.67081 1.83301 9.16664V6.1233C1.83301 5.78414 2.08968 5.39914 2.41051 5.27081L10.6605 1.97083C10.8438 1.8975 11.1555 1.8975 11.3388 1.97083Z" stroke="white" stroke-width="1.5" stroke-miterlimit="10" stroke-linecap="round" stroke-linejoin="round"/>
<path d="M20.1663 20.1667H1.83301V17.4167C1.83301 16.9125 2.24551 16.5 2.74967 16.5H19.2497C19.7538 16.5 20.1663 16.9125 20.1663 17.4167V20.1667Z" stroke="white" stroke-width="1.5" stroke-miterlimit="10" stroke-linecap="round" stroke-linejoin="round"/>
<path d="M3.66699 16.5V10.0833" stroke="white" stroke-width="1.5" stroke-miterlimit="10" stroke-linecap="round" stroke-linejoin="round"/>
<path d="M7.33301 16.5V10.0833" stroke="white" stroke-width="1.5" stroke-miterlimit="10" stroke-linecap="round" stroke-linejoin="round"/>
<path d="M11 16.5V10.0833" stroke="white" stroke-width="1.5" stroke-miterlimit="10" stroke-linecap="round" stroke-linejoin="round"/>
<path d="M14.667 16.5V10.0833" stroke="white" stroke-width="1.5" stroke-miterlimit="10" stroke-linecap="round" stroke-linejoin="round"/>
<path d="M18.333 16.5V10.0833" stroke="white" stroke-width="1.5" stroke-miterlimit="10" stroke-linecap="round" stroke-linejoin="round"/>
<path d="M0.916992 20.1667H21.0837" stroke="white" stroke-width="1.5" stroke-miterlimit="10" stroke-linecap="round" stroke-linejoin="round"/>
<path d="M11 7.79169C11.7594 7.79169 12.375 7.17608 12.375 6.41669C12.375 5.6573 11.7594 5.04169 11 5.04169C10.2406 5.04169 9.625 5.6573 9.625 6.41669C9.625 7.17608 10.2406 7.79169 11 7.79169Z" stroke="white" stroke-width="1.5" stroke-miterlimit="10" stroke-linecap="round" stroke-linejoin="round"/>
</svg>
