<svg width="22" height="22" viewBox="0 0 22 22" fill="none" xmlns="http://www.w3.org/2000/svg">
<path d="M16.4814 9.89084V13.5575C16.4814 13.7958 16.4722 14.025 16.4447 14.245C16.2338 16.72 14.7763 17.9483 12.0905 17.9483H11.7238C11.4947 17.9483 11.2747 18.0583 11.1372 18.2417L10.0372 19.7083C9.55135 20.3592 8.76301 20.3592 8.27717 19.7083L7.17716 18.2417C7.058 18.0858 6.79218 17.9483 6.59051 17.9483H6.22385C3.29968 17.9483 1.83301 17.2242 1.83301 13.5575V9.89084C1.83301 7.20501 3.07052 5.74751 5.53635 5.53667C5.75635 5.50917 5.98552 5.5 6.22385 5.5H12.0905C15.0147 5.5 16.4814 6.96667 16.4814 9.89084Z" stroke="white" stroke-width="1.5" stroke-miterlimit="10" stroke-linecap="round" stroke-linejoin="round"/>
<path d="M20.1488 6.22385V9.89052C20.1488 12.5855 18.9113 14.0338 16.4454 14.2447C16.4729 14.0247 16.4821 13.7955 16.4821 13.5572V9.89052C16.4821 6.96635 15.0154 5.49967 12.0913 5.49967H6.22461C5.98628 5.49967 5.75711 5.50885 5.53711 5.53635C5.74794 3.07052 7.20544 1.83301 9.89128 1.83301H15.7579C18.6821 1.83301 20.1488 3.29968 20.1488 6.22385Z" stroke="white" stroke-width="1.5" stroke-miterlimit="10" stroke-linecap="round" stroke-linejoin="round"/>
<path d="M12.3712 12.1458H12.3795" stroke="white" stroke-width="2" stroke-linecap="round" stroke-linejoin="round"/>
<path d="M9.16222 12.1458H9.17047" stroke="white" stroke-width="2" stroke-linecap="round" stroke-linejoin="round"/>
<path d="M5.95421 12.1458H5.96246" stroke="white" stroke-width="2" stroke-linecap="round" stroke-linejoin="round"/>
</svg>
